<svg width="77" height="126" viewBox="0 0 77 126" fill="none" xmlns="http://www.w3.org/2000/svg">
<path d="M134.37 149.973C134.736 164.442 116.552 171.143 107.442 159.897C102.566 153.879 93.9367 152.505 87.433 156.712L69.5553 168.276C56.5742 176.673 39.5059 167.028 40.001 151.576C40.2815 142.821 34.5893 134.992 26.1753 132.558L14.4512 129.167C-1.42247 124.576 -5.19633 103.807 8.04747 93.925L11.005 91.7182C19.4256 85.435 21.5491 73.7076 15.8663 64.8708L11.3711 57.8808C2.83654 44.6095 12.3122 27.1439 28.0906 27.0632L29.9069 27.0539C37.5657 27.0148 44.5296 22.6051 47.8399 15.6985L49.9192 11.3605C55.5442 -0.375589 70.7023 -3.69807 80.7207 4.6091L99.4604 20.1481C102.987 23.0726 107.411 24.6975 111.993 24.751L143.21 25.1158C146.123 25.1498 148.993 25.8199 151.62 27.079L169.586 35.6899C181.154 41.2344 180.98 57.7643 169.298 63.0648C162.559 66.1225 159.028 73.6124 160.958 80.7568L165.942 99.215C168.928 110.273 162.034 121.576 150.836 123.982L148.19 124.551C139.847 126.344 133.961 133.821 134.177 142.353L134.37 149.973Z" fill="#CECDBB"/>
</svg>
